<svg width="123" height="44" viewBox="0 0 123 44" fill="none" xmlns="http://www.w3.org/2000/svg">
<path d="M2.43063 28V10.72H5.83863V28H2.43063ZM4.30263 28V25.024H13.9266V28H4.30263ZM4.30263 20.584V17.728H12.4146V20.584H4.30263ZM4.30263 13.696V10.72H13.6866V13.696H4.30263ZM16.0499 21.4C16.0499 19.88 16.3619 18.616 16.9859 17.608C17.6099 16.6 18.4739 15.848 19.5779 15.352C20.6819 14.84 21.9619 14.584 23.4179 14.584C24.5699 14.584 25.5459 14.736 26.3459 15.04V17.8H26.1059C25.8179 17.656 25.4659 17.536 25.0499 17.44C24.6499 17.344 24.1939 17.296 23.6819 17.296C22.3699 17.296 21.3379 17.648 20.5859 18.352C19.8499 19.04 19.4819 20.056 19.4819 21.4C19.4819 22.744 19.8499 23.768 20.5859 24.472C21.3379 25.16 22.3699 25.504 23.6819 25.504C24.1939 25.504 24.6499 25.456 25.0499 25.36C25.4659 25.264 25.8179 25.144 26.1059 25H26.3459V27.76C25.5459 28.08 24.5699 28.24 23.4179 28.24C21.9139 28.24 20.6099 27.992 19.5059 27.496C18.4179 26.984 17.5699 26.224 16.9619 25.216C16.3539 24.192 16.0499 22.92 16.0499 21.4ZM28.4249 21.4C28.4249 19.912 28.6969 18.664 29.2409 17.656C29.7849 16.632 30.5449 15.864 31.5209 15.352C32.4969 14.84 33.6169 14.584 34.8809 14.584C36.1289 14.584 37.2409 14.84 38.2169 15.352C39.1929 15.864 39.9529 16.632 40.4969 17.656C41.0409 18.664 41.3129 19.912 41.3129 21.4C41.3129 22.904 41.0409 24.16 40.4969 25.168C39.9529 26.176 39.1929 26.944 38.2169 27.472C37.2409 27.984 36.1289 28.24 34.8809 28.24C33.6009 28.24 32.4729 27.984 31.4969 27.472C30.5369 26.944 29.7849 26.176 29.2409 25.168C28.6969 24.16 28.4249 22.904 28.4249 21.4ZM31.8569 21.4C31.8569 22.808 32.1129 23.872 32.6249 24.592C33.1369 25.296 33.8889 25.648 34.8809 25.648C35.8569 25.648 36.6009 25.296 37.1129 24.592C37.6249 23.872 37.8809 22.808 37.8809 21.4C37.8809 19.992 37.6249 18.936 37.1129 18.232C36.6009 17.512 35.8569 17.152 34.8809 17.152C33.8889 17.152 33.1369 17.512 32.6249 18.232C32.1129 18.936 31.8569 19.992 31.8569 21.4ZM44.7415 28V10.72H47.0455V25.984H54.4375V28H44.7415ZM56.7402 21.424C56.7402 20 56.9882 18.784 57.4842 17.776C57.9962 16.768 58.7002 16 59.5962 15.472C60.5082 14.928 61.5562 14.656 62.7402 14.656C63.9242 14.656 64.9642 14.928 65.8602 15.472C66.7722 16 67.4762 16.768 67.9722 17.776C68.4842 18.784 68.7402 20 68.7402 21.424C68.7402 22.848 68.4842 24.064 67.9722 25.072C67.4762 26.08 66.7722 26.856 65.8602 27.4C64.9642 27.928 63.9242 28.192 62.7402 28.192C61.5242 28.192 60.4682 27.928 59.5722 27.4C58.6762 26.856 57.9802 26.08 57.4842 25.072C56.9882 24.064 56.7402 22.848 56.7402 21.424ZM58.9962 21.424C58.9962 23.024 59.3162 24.232 59.9562 25.048C60.6122 25.864 61.5402 26.272 62.7402 26.272C63.9402 26.272 64.8602 25.864 65.5002 25.048C66.1562 24.232 66.4842 23.024 66.4842 21.424C66.4842 19.808 66.1562 18.6 65.5002 17.8C64.8602 16.984 63.9402 16.576 62.7402 16.576C61.5402 16.576 60.6122 16.984 59.9562 17.8C59.3162 18.6 58.9962 19.808 58.9962 21.424ZM78.0383 28.288C76.5983 28.288 75.3743 28.016 74.3663 27.472C73.3743 26.912 72.6143 26.12 72.0863 25.096C71.5743 24.072 71.3183 22.848 71.3183 21.424C71.3183 20 71.6063 18.784 72.1823 17.776C72.7583 16.768 73.5663 16 74.6063 15.472C75.6463 14.928 76.8543 14.656 78.2303 14.656C78.7903 14.656 79.2863 14.696 79.7183 14.776C80.1663 14.856 80.5263 14.96 80.7983 15.088L80.7023 17.008C80.5263 16.928 80.2383 16.84 79.8383 16.744C79.4543 16.632 78.9663 16.576 78.3743 16.576C76.8223 16.576 75.6303 16.992 74.7983 17.824C73.9823 18.656 73.5743 19.856 73.5743 21.424C73.5743 22.56 73.7503 23.496 74.1023 24.232C74.4703 24.952 74.9983 25.488 75.6863 25.84C76.3743 26.192 77.2223 26.368 78.2303 26.368C78.7903 26.368 79.2943 26.32 79.7423 26.224C80.2063 26.112 80.6143 25.976 80.9663 25.816L80.5823 26.488C80.5183 26.216 80.4703 25.896 80.4383 25.528C80.4063 25.144 80.3903 24.752 80.3903 24.352V13.888C80.3903 13.568 80.3823 13.152 80.3663 12.64C80.3663 12.128 80.3503 11.624 80.3183 11.128C80.3023 10.632 80.2623 10.24 80.1983 9.952L80.2463 9.76H82.5983V23.2C82.5983 23.52 82.5983 23.936 82.5983 24.448C82.6143 24.96 82.6303 25.464 82.6463 25.96C82.6783 26.456 82.7263 26.848 82.7903 27.136L82.7423 27.328C82.0703 27.584 81.3423 27.808 80.5583 28C79.7903 28.192 78.9503 28.288 78.0383 28.288ZM90.9543 33.76C90.3783 33.76 89.7463 33.704 89.0583 33.592C88.3703 33.496 87.7863 33.344 87.3063 33.136V31.168H87.4983C88.0263 31.408 88.6023 31.576 89.2263 31.672C89.8663 31.784 90.4423 31.84 90.9543 31.84C91.9943 31.84 92.8263 31.688 93.4503 31.384C94.0743 31.08 94.5223 30.616 94.7943 29.992C95.0823 29.368 95.2263 28.576 95.2263 27.616V18.4C95.2263 18.016 95.2343 17.656 95.2503 17.32C95.2823 16.984 95.3223 16.664 95.3703 16.36L95.7783 17.032C95.4263 16.92 95.0263 16.816 94.5783 16.72C94.1463 16.624 93.6743 16.576 93.1623 16.576C92.1063 16.576 91.2263 16.76 90.5223 17.128C89.8183 17.48 89.2903 18.016 88.9383 18.736C88.5863 19.44 88.4103 20.32 88.4103 21.376C88.4103 22.912 88.8023 24.064 89.5863 24.832C90.3863 25.6 91.5783 25.984 93.1623 25.984C93.6103 25.984 94.0343 25.952 94.4343 25.888C94.8343 25.824 95.2743 25.696 95.7543 25.504L95.7063 27.52C95.1623 27.648 94.6823 27.744 94.2663 27.808C93.8503 27.872 93.4503 27.904 93.0663 27.904C91.6903 27.904 90.4823 27.664 89.4423 27.184C88.4023 26.688 87.5943 25.96 87.0183 25C86.4423 24.024 86.1543 22.816 86.1543 21.376C86.1543 20.336 86.3063 19.408 86.6103 18.592C86.9303 17.76 87.3943 17.056 88.0023 16.48C88.6103 15.888 89.3463 15.44 90.2103 15.136C91.0743 14.816 92.0583 14.656 93.1623 14.656C93.8823 14.656 94.6423 14.744 95.4423 14.92C96.2423 15.08 96.9543 15.28 97.5782 15.52L97.6263 15.712C97.5623 16 97.5143 16.392 97.4823 16.888C97.4663 17.384 97.4503 17.888 97.4343 18.4C97.4343 18.912 97.4343 19.328 97.4343 19.648V27.616C97.4343 28.896 97.1783 29.992 96.6663 30.904C96.1703 31.832 95.4343 32.536 94.4583 33.016C93.4983 33.512 92.3303 33.76 90.9543 33.76ZM102.91 33.568V33.28L105.886 25.984L110.11 14.944H112.318V15.232L105.022 33.568H102.91ZM105.31 28.48L100.03 15.232V14.944H102.334L106.582 26.032L105.31 28.48Z" fill="#F2F2F2"/>
</svg>
